<svg aria-hidden="true" style="position:absolute;width:0;height:0;overflow:hidden" xmlns="http://www.w3.org/2000/svg">
  <defs>
    <symbol id="icon-twitter" viewBox="0 0 32 32">
      <path d="M32 6.078c-1.19.522-2.458.868-3.78 1.036 1.36-.812 2.398-2.088 2.886-3.626-1.268.756-2.668 1.29-4.16 1.588C25.742 3.794 24.026 3 22.154 3c-3.632 0-6.556 2.948-6.556 6.562 0 .52.044 1.02.152 1.496-5.454-.266-10.28-2.88-13.522-6.862-.566.982-.898 2.106-.898 3.316 0 2.272 1.17 4.286 2.914 5.452-1.054-.02-2.088-.326-2.964-.808v.072c0 3.188 2.274 5.836 5.256 6.446-.534.146-1.116.216-1.72.216-.42 0-.844-.024-1.242-.112.85 2.598 3.262 4.508 6.13 4.57-2.232 1.746-5.066 2.798-8.134 2.798-.538 0-1.054-.024-1.57-.09C2.906 27.93 6.35 29 10.064 29c12.072 0 18.672-10 18.672-18.668 0-.29-.01-.57-.024-.848C30.014 8.56 31.108 7.406 32 6.078z"/>
    </symbol>
    <symbol id="icon-facebook" viewBox="0 0 32 32">
      <path d="M21.329 5.313h2.921V.225C23.746.156 22.013 0 19.994 0c-4.212 0-7.097 2.649-7.097 7.519V12H8.249v5.688h4.648V32h5.699V17.689h4.46l.708-5.688h-5.169V8.082c.001-1.644.444-2.769 2.735-2.769z"/>
    </symbol>
    <symbol id="icon-logo-6" viewBox="0 0 67 32">
      <path d="M33.724 15.224c-.315-.419-.466-.915-.43-1.414v-2.05c0-.628.142-1.106.428-1.433s.775-.489 1.469-.488c.652 0 1.115.139 1.389.417.299.355.444.789.411 1.226v.482h-1.167v-.488c.004-.16-.007-.319-.034-.478-.017-.108-.076-.208-.167-.284-.12-.081-.271-.121-.423-.111-.16-.01-.318.031-.444.117-.102.084-.169.193-.193.313-.033.167-.049.337-.046.507v2.488c-.018.24.033.48.15.699.058.074.139.132.233.169s.198.05.301.039c.149.011.298-.03.413-.113.095-.082.156-.188.174-.302.027-.165.039-.332.036-.498v-.505h1.167v.461c.033.456-.109.909-.403 1.289-.268.305-.725.457-1.396.457s-1.179-.163-1.466-.501zM38.583 15.245c-.295-.319-.442-.784-.442-1.4v-2.157c0-.609.147-1.07.442-1.383s.788-.469 1.478-.467c.686 0 1.177.156 1.471.467.295.313.444.774.444 1.383v2.157c0 .609-.15 1.076-.449 1.397s-.788.482-1.466.482c-.679 0-1.181-.163-1.478-.48zm2.022-.518c.106-.2.154-.419.14-.638v-2.641c.014-.215-.034-.43-.138-.626-.059-.075-.142-.135-.238-.172s-.203-.05-.308-.037c-.105-.013-.212 0-.308.037s-.18.096-.24.172c-.106.195-.154.41-.14.626v2.653c-.015.219.033.439.14.638.068.067.152.121.246.158s.196.056.3.056c.103 0 .206-.019.3-.056s.178-.091.246-.158v-.012zM43.38 9.901h1.256l.945 3.979.966-3.979h1.222l.123 5.743h-.904l-.097-3.992-.932 3.992h-.725l-.966-4.006-.089 4.006h-.913l.114-5.743zM49.301 9.901h1.957c1.127 0 1.691.544 1.691 1.631 0 1.041-.593 1.561-1.78 1.56h-.667v2.553h-1.208l.007-5.743zm1.672 2.455c.119.013.24.004.355-.028s.22-.084.309-.154c.139-.194.2-.422.174-.649.006-.175-.013-.35-.058-.521-.017-.057-.047-.111-.089-.158s-.093-.086-.153-.116a1.262 1.262 0 0 0-.539-.092h-.469v1.716h.469zM54.691 9.901h1.297l1.331 5.743h-1.126l-.263-1.324h-1.157l-.271 1.324h-1.143l1.331-5.743zm1.109 3.754-.452-2.411-.452 2.411h.903zM58.395 9.901h.846l1.619 3.276V9.901h1.003v5.743h-.804l-1.628-3.42v3.42h-1.036l.002-5.743zM64.209 13.455l-1.346-3.546h1.133l.821 2.277.771-2.277h1.109l-1.329 3.546v2.19h-1.16v-2.19zM35.589 18.156v.3h-.986v2.334h-.413v-2.334h-.99v-.3h2.389zM38.679 20.79h-.319a.1387.1387 0 0 1-.089-.025.1329.1329 0 0 1-.053-.06l-.285-.626h-1.367l-.285.626a.1724.1724 0 0 1-.044.071.1518.1518 0 0 1-.089.025h-.319l1.208-2.634h.42l1.222 2.624zm-2-.978h1.14l-.483-1.072a1.749 1.749 0 0 1-.089-.248c-.017.05-.031.098-.046.14l-.044.11-.478 1.07zM40.762 20.532c.076.003.151.003.227 0 .065-.006.13-.016.193-.031.059-.013.117-.029.174-.048.053-.019.106-.042.162-.065v-.592h-.483c-.012.001-.024-.001-.035-.005s-.021-.009-.03-.016a.0616.0616 0 0 1-.024-.048v-.202h.937v1.01c-.077.047-.157.089-.242.125-.086.037-.176.067-.268.09-.099.025-.2.043-.302.054-.117.011-.235.017-.353.017-.208.002-.415-.032-.609-.098-.181-.063-.345-.156-.483-.275-.134-.12-.24-.262-.312-.417a1.316 1.316 0 0 1-.111-.547c-.003-.188.034-.374.109-.551.069-.156.176-.298.312-.417.138-.119.302-.212.483-.273.207-.067.426-.1.647-.098.112 0 .225.008.336.023.098.014.195.036.288.067.084.027.165.062.242.104.074.041.144.087.21.138l-.116.163c-.009.015-.023.027-.039.036s-.036.014-.055.014a.159.159 0 0 1-.075-.021 1.5819 1.5819 0 0 1-.118-.063 1.0193 1.0193 0 0 0-.162-.071 1.508 1.508 0 0 0-.222-.058 1.8505 1.8505 0 0 0-.307-.023c-.159-.002-.318.023-.466.073-.134.047-.256.118-.355.209-.1.095-.177.206-.225.328-.108.285-.108.593 0 .878.053.124.135.237.242.332.099.09.219.162.353.209.154.046.316.063.478.052zM44.612 20.49h1.319v.3h-1.722v-2.634h.413l-.01 2.334zM47.304 20.79h-.413v-2.634h.413v2.634zM48.84 18.168c.025.012.046.028.063.048l1.766 1.986a.737.737 0 0 1 0-.094v-1.962h.36v2.645h-.208a.1903.1903 0 0 1-.089-.015.2302.2302 0 0 1-.065-.05l-1.764-1.984v2.048h-.345v-2.634h.215c.023 0 .046.004.068.012zM54.07 18.156v.29h-1.464v.87h1.186v.279h-1.186v.899h1.464v.29h-1.889v-2.628h1.889zM10.782 1.888l18.343 4.497v15.757l-18.343-4.494V1.889zM9.605.545v17.867l20.694 5.074V5.621L9.605.545z"/>
      <path d="M20.696 31.781 0 26.702V8.836l20.696 5.076V31.78z"/>
      <path d="m9.948 1.686 18.104 4.44-7.699 6.649L2.247 8.333l7.702-6.647zM9.605.545 0 8.837l20.696 5.076 9.603-8.292L9.605.545zM21.861 30.776l8.438-7.287-8.438-2.071v9.358z"/>
    </symbol>
    <symbol id="icon-logo-5" viewBox="0 0 43 32">
      <path d="M3.239 26.373c.166.188.254.424.25.665.008.158-.022.315-.089.46s-.169.275-.298.38c-.322.223-.722.332-1.125.307H0V23.97h1.937c.382-.023.761.076 1.073.28.125.096.224.217.289.354s.095.286.086.435c.011.233-.068.461-.225.645-.15.168-.358.284-.589.329.262.044.499.172.668.36zM.92 25.737h.828c.188.013.375-.037.526-.14.062-.052.111-.116.141-.187s.043-.148.036-.225c.006-.076-.007-.153-.037-.224s-.078-.135-.138-.188c-.156-.106-.349-.156-.542-.142H.92v1.106zm1.435 1.616c.066-.053.119-.119.153-.193s.049-.155.043-.235c.005-.081-.01-.163-.045-.238s-.088-.142-.155-.195c-.162-.11-.361-.164-.562-.152H.921v1.159H1.8c.198.011.394-.041.556-.146zM7.197 28.185 6.12 26.538h-.405v1.647h-.927V23.97h1.754c.442-.028.879.1 1.221.358.245.229.393.53.417.85s-.078.637-.287.894c-.216.227-.512.378-.837.428l1.147 1.684H7.195zm-1.482-2.222h.758c.526 0 .789-.213.789-.638.005-.087-.009-.174-.042-.255s-.085-.156-.151-.218c-.166-.127-.38-.188-.596-.171h-.767l.009 1.283zM12.262 27.337h-1.847l-.326.848h-.972l1.696-4.168h1.05l1.689 4.168h-.972l-.319-.848zm-.247-.639-.675-1.779-.675 1.779h1.349zM18.602 28.185h-.92l-2.062-2.867v2.867h-.918V23.97h.918l2.062 2.883V23.97h.92v4.215zM23.852 27.176c-.19.318-.48.577-.832.743-.4.185-.845.276-1.293.266H20.09V23.97h1.637c.448-.011.891.078 1.293.259.352.163.642.419.832.735.189.343.288.722.288 1.106s-.099.763-.288 1.106zm-1.053-.101c.263-.28.407-.637.407-1.006s-.144-.726-.407-1.006c-.317-.254-.731-.382-1.152-.358h-.639v2.729h.639c.42.024.834-.105 1.152-.358zM12.838.522s11.873 4.104 11.621 10.043V20.61s-11.864-4.106-11.617-10.045L12.837.522zM35.037 18.259c2.242-1.413 4.836-2.288 7.544-2.545v-3.145c-3.12 1.101-5.766 3.097-7.544 5.69z"/>
      <path d="M33.69 19.206c1.835-3.384 5.017-5.995 8.891-7.296V2.849S25.672 8.695 26.03 17.153v14.302s.753-.262 1.939-.752c0-.457 0-.918.054-1.382.35-3.926 2.389-7.565 5.668-10.115z"/>
      <path d="M32.081 24.52c.089-.992.287-1.973.592-2.928-2.042 2.203-3.278 4.936-3.536 7.815-.025.272-.038.544-.045.824.96-.422 2.078-.949 3.252-1.569-.3-1.362-.388-2.756-.263-4.141zM32.754 24.571c-.113 1.253-.042 2.514.209 3.75 4.62-2.531 9.811-6.442 9.611-11.168v-.412c-3.301.338-6.389 1.659-8.79 3.76-.562 1.302-.909 2.674-1.03 4.069z"/>
    </symbol>
    <symbol id="icon-logo-4" viewBox="0 0 65 32">
      <path d="M10.016 9.983h-.002c-1.827 0-3.308 1.316-3.308 2.94v.002c0 1.624 1.481 2.94 3.308 2.94h.002c1.827 0 3.308-1.316 3.308-2.94v-.002c0-1.624-1.481-2.94-3.308-2.94zM34.434 9.043c-.005-2.255-1.015-4.417-2.81-6.012S27.398.538 24.86.533c-2.538.004-4.972.902-6.767 2.497s-2.806 3.757-2.811 6.013v12.436s19.149-1.895 19.151-12.434v-.002zM0 25.562c.005 1.569.708 3.073 1.956 4.183s2.94 1.735 4.706 1.74c1.765-.005 3.457-.63 4.705-1.739s1.952-2.613 1.957-4.182V16.91S-.001 18.23-.001 25.562zm6.662 1.55c-.345 0-.682-.091-.969-.261s-.511-.413-.643-.696-.167-.595-.099-.896.233-.577.477-.794.555-.364.893-.424c.338-.06.689-.029 1.008.088s.591.316.783.571c.192.255.294.555.294.861.001.204-.044.406-.131.595s-.216.36-.378.505c-.162.145-.355.259-.567.338s-.439.119-.669.119v-.006zM20.128 26.258h-1.286v1.328h-.67v-3.25h2.116v.542h-1.446v.839h1.286v.54zm3.218-.223c0 .32-.057.6-.17.842s-.275.427-.487.558c-.21.131-.451.196-.723.196-.269 0-.51-.065-.721-.194s-.375-.314-.491-.554c-.116-.241-.175-.518-.176-.83v-.161c0-.32.057-.601.172-.844.116-.244.279-.431.489-.56.211-.131.452-.196.723-.196s.511.065.721.196c.211.129.374.316.489.56.116.242.174.523.174.841v.145zm-.678-.147c0-.341-.061-.6-.183-.777s-.296-.266-.522-.266c-.225 0-.398.088-.52.263-.122.174-.184.43-.185.768v.158c0 .332.061.589.183.772s.298.275.527.275c.225 0 .397-.088.518-.263.121-.177.182-.434.183-.772v-.158zm2.85.846c0-.126-.045-.223-.134-.29-.089-.068-.25-.14-.482-.214-.232-.076-.416-.15-.551-.223-.369-.199-.554-.468-.554-.806 0-.176.049-.332.147-.469.1-.138.242-.246.426-.324.186-.077.394-.116.625-.116.232 0 .439.042.621.127.181.083.322.202.422.355.101.153.152.327.152.522h-.67c0-.149-.047-.264-.141-.346-.094-.083-.225-.125-.395-.125-.164 0-.291.035-.382.105-.091.068-.136.159-.136.272 0 .106.053.194.158.266.107.071.264.138.471.201.381.115.659.257.833.426s.261.381.261.634c0 .281-.106.502-.319.663-.213.159-.499.239-.859.239-.25 0-.478-.045-.683-.136-.205-.092-.362-.218-.471-.377-.107-.159-.161-.344-.161-.554h.672c0 .359.214.538.643.538.159 0 .284-.032.373-.096.089-.065.134-.156.134-.272zm3.574-1.855h-.996v2.708h-.67v-2.708h-.982v-.542h2.647v.542zm2.339 1.299h-1.286v.871h1.509v.538h-2.179v-3.25h2.174v.542h-1.504v.775h1.286v.525zm1.82.218h-.533v1.19h-.67v-3.25h1.208c.384 0 .68.086.888.257s.312.413.312.725c0 .222-.048.407-.145.556-.095.147-.24.265-.435.353l.703 1.328v.031h-.719l-.609-1.19zm-.534-.542h.54c.168 0 .298-.042.391-.127.092-.086.138-.205.138-.355 0-.153-.044-.274-.132-.362-.086-.088-.219-.132-.4-.132h-.538v.975zm4.058.587v1.145h-.67v-3.25h1.268c.244 0 .458.045.643.134.186.089.329.216.429.382.1.164.15.35.15.56 0 .318-.109.57-.328.754-.217.183-.519.275-.904.275h-.587zm0-.542h.598c.177 0 .312-.042.404-.125.094-.083.141-.202.141-.357 0-.159-.047-.288-.141-.386s-.223-.149-.388-.152h-.614v1.02zm4.237.279h-1.286v.871h1.509v.538h-2.179v-3.25h2.174v.542h-1.504v.775h1.286v.525zm3.107-1.299h-.995v2.708h-.67v-2.708h-.982v-.542h2.647v.542zm2.339 1.299h-1.286v.871h1.509v.538h-2.178v-3.25h2.174v.542h-1.504v.775h1.286v.525zm1.819.218h-.533v1.19h-.67v-3.25h1.208c.384 0 .68.086.888.257s.313.413.313.725c0 .222-.048.407-.145.556-.095.147-.24.265-.435.353l.703 1.328v.031h-.719l-.609-1.19zm-.533-.542h.54c.168 0 .298-.042.391-.127.092-.086.138-.205.138-.355 0-.153-.044-.274-.132-.362-.086-.088-.219-.132-.4-.132h-.538v.975zm3.935.88c0-.126-.045-.223-.134-.29-.089-.068-.25-.14-.482-.214-.232-.076-.416-.15-.551-.223-.369-.199-.554-.468-.554-.806 0-.176.049-.332.147-.469.1-.138.242-.246.426-.324.186-.077.394-.116.625-.116.232 0 .439.042.621.127.182.083.322.202.422.355.101.153.152.327.152.522h-.67c0-.149-.047-.264-.141-.346-.094-.083-.225-.125-.395-.125-.164 0-.291.035-.382.105-.091.068-.136.159-.136.272 0 .106.053.194.158.266.107.071.264.138.471.201.381.115.658.257.833.426s.261.381.261.634c0 .281-.106.502-.319.663-.213.159-.499.239-.859.239-.25 0-.478-.045-.683-.136-.205-.092-.362-.218-.471-.377-.107-.159-.161-.344-.161-.554h.672c0 .359.214.538.643.538.159 0 .283-.032.373-.096.089-.065.134-.156.134-.272z"/>
    </symbol>
    <symbol id="icon-logo-3" viewBox="0 0 34 32">
      <path d="M5.643 31.315c.012 0 .024.003.035.007s.021.011.029.018l.166.159c-.129.129-.288.231-.467.302-.21.076-.435.113-.663.108-.213.004-.426-.031-.623-.101-.178-.065-.338-.162-.469-.285-.134-.128-.237-.278-.303-.44a1.472 1.472 0 0 1-.106-.565c-.003-.193.036-.386.114-.567.073-.164.182-.314.322-.44.142-.124.312-.222.499-.287.205-.069.422-.103.642-.101.204-.004.407.027.596.092.165.062.316.148.447.255l-.139.17a.1729.1729 0 0 1-.035.031.097.097 0 0 1-.056.013.1357.1357 0 0 1-.06-.018l-.075-.045-.104-.058a1.301 1.301 0 0 0-.139-.056 1.5274 1.5274 0 0 0-.189-.045 1.4592 1.4592 0 0 0-.247-.018c-.158-.002-.315.024-.461.076-.136.048-.26.121-.361.213a.9866.9866 0 0 0-.235.339c-.058.144-.087.295-.085.448-.002.155.026.309.085.455.051.125.129.239.231.338.095.092.213.163.345.209.136.049.281.073.428.072.085.001.17-.004.253-.014.137-.015.268-.056.384-.121.058-.033.113-.071.164-.112a.1274.1274 0 0 1 .079-.029zM10.441 30.517c.003.192-.035.382-.112.561-.068.163-.174.311-.313.436s-.306.222-.491.286a2.02 2.02 0 0 1-1.263 0 1.454 1.454 0 0 1-.488-.287c-.138-.127-.246-.276-.316-.44-.15-.364-.15-.761 0-1.125.071-.164.178-.314.316-.442.139-.12.305-.214.488-.276a1.992 1.992 0 0 1 1.263 0c.185.065.351.163.49.287.137.125.243.273.314.435.077.181.115.372.112.565zm-.436 0c.003-.153-.023-.306-.079-.451-.047-.125-.122-.239-.222-.338a.971.971 0 0 0-.351-.213 1.4559 1.4559 0 0 0-.918 0 .971.971 0 0 0-.351.213c-.101.097-.178.212-.224.338-.106.294-.106.609 0 .903.047.125.123.24.224.338.098.092.217.164.351.211.296.096.622.096.918 0 .134-.047.254-.119.351-.211a.933.933 0 0 0 .222-.338c.056-.145.082-.298.079-.451zM13.715 30.99l.044.101c.017-.036.031-.069.048-.101a.9493.9493 0 0 1 .054-.099l1.062-1.677c.021-.029.039-.047.06-.052a.2833.2833 0 0 1 .087-.009h.314v2.727h-.372v-2.09a.737.737 0 0 1 0-.094l-1.068 1.7c-.014.025-.035.047-.063.062s-.059.023-.091.023h-.06c-.032 0-.064-.007-.091-.022s-.049-.037-.062-.062l-1.099-1.711v2.189h-.359v-2.722h.314c.03-.002.059.002.087.009.026.011.046.03.058.052l1.084 1.678c.021.031.039.064.054.097zM17.71 30.855v1.021h-.415v-2.723h.926c.175-.003.349.017.517.059.134.033.259.091.366.17.092.074.163.165.208.267a.825.825 0 0 1 .071.348.7714.7714 0 0 1-.077.348.7696.7696 0 0 1-.224.273 1.062 1.062 0 0 1-.368.18 1.757 1.757 0 0 1-.501.063l-.503-.007zm0-.293h.503c.109.001.218-.013.322-.041a.7095.7095 0 0 0 .233-.117c.062-.05.111-.112.141-.18a.526.526 0 0 0 .05-.229c.005-.076-.009-.151-.042-.222s-.082-.134-.145-.186c-.159-.108-.358-.16-.559-.146h-.503v1.122zM23.294 31.88h-.328a.158.158 0 0 1-.091-.025.1704.1704 0 0 1-.054-.063l-.282-.659H21.12l-.293.659a.1522.1522 0 0 1-.052.061.1585.1585 0 0 1-.093.027h-.328l1.246-2.727h.432l1.263 2.727zm-2.057-1.013h1.172l-.494-1.11a1.7461 1.7461 0 0 1-.093-.256l-.048.143c-.014.043-.031.083-.046.116l-.49 1.108zM25.089 29.165c.025.012.046.029.062.049l1.818 2.056v-2.117h.372v2.727h-.208a.2013.2013 0 0 1-.085-.016.2396.2396 0 0 1-.067-.05l-1.816-2.054a.737.737 0 0 1 0 .094v2.027h-.372v-2.727h.22c.026-.001.051.004.075.013zM30.402 30.795v1.083h-.415v-1.083l-1.149-1.642h.372c.032-.002.064.007.089.023a.23.23 0 0 1 .056.061l.719 1.059c.029.045.054.087.075.126s.037.078.052.116l.054-.117a.975.975 0 0 1 .071-.125l.708-1.067a.2954.2954 0 0 1 .054-.058.1402.1402 0 0 1 .089-.027h.376l-1.151 1.65zM13.51 24.576c.181.02.364.036.548.051 2.803-1.089 5.174-2.873 6.817-5.126s2.485-4.878 2.421-7.546l-3.089-2.684c.628 2.84.334 5.776-.849 8.479s-3.208 5.067-5.849 6.827z"/>
      <path d="m12.407 24.451.083.014c2.822-1.754 4.974-4.203 6.176-7.03s1.402-5.904.571-8.83l-4.4-3.823c1.78 3.142 2.496 6.659 2.066 10.141s-1.989 6.786-4.496 9.528zM27.328 15.106c-.747 2.931-2.563 5.574-5.177 7.537-.763.576-1.587 1.09-2.46 1.534 2.128-.544 4.085-1.504 5.718-2.809s2.9-2.917 3.703-4.714l-1.784-1.549z"/>
      <path d="m26.628 14.674-2.541-2.207c-.049 2.517-.872 4.976-2.385 7.123s-3.66 3.902-6.217 5.084h.012c.57 0 1.139-.03 1.705-.088 2.39-.848 4.502-2.196 6.147-3.926s2.771-3.785 3.278-5.985zM12.774 3.17 9.743.533c-2.709.91-5.04 2.509-6.686 4.588S.526 9.663.517 12.187c.01 2.789 1.09 5.495 3.07 7.69s4.745 3.754 7.859 4.43c2.78-2.942 4.407-6.579 4.646-10.38s-.924-7.569-3.319-10.757zM33.63 14.268c-.011-3.309-1.529-6.479-4.221-8.818s-6.342-3.658-10.15-3.668c-1.76-.002-3.504.281-5.146.832L32.67 18.737c.635-1.425.961-2.94.96-4.469z"/>
    </symbol>
    <symbol id="icon-logo-2" viewBox="0 0 25 32">
      <path d="M10.531 1.806h-.084a9.9847 9.9847 0 0 0-.388-.014h-.28c-.244 0-.494.006-.741.019a.523.523 0 0 0-.056 0c-2.243.127-4.44.688-6.471 1.651l-.266.128v13.625l.623-.211c.546-.188 1.129-.357 1.731-.513 1.629-.418 3.301-.64 4.982-.662v1.79c-.223.002-.439.008-.655.019h-.051c-1.294.071-2.577.268-3.833.588-1.59.398-3.124.996-4.566 1.779V2.53c1.497-.873 3.11-1.529 4.79-1.948C6.741.201 8.258.006 9.781 0h.263c.314.008.621.022.909.044.759.053 1.511.173 2.249.358v1.762c-.717-.167-1.445-.277-2.179-.329-.015-.001-.03-.003-.045-.004-.152-.013-.304-.026-.446-.026zm3.102 1.801c.391.03.796.044 1.205.044 1.601-.006 3.195-.21 4.747-.609 1.589-.4 3.123-.998 4.564-1.781v17.163a18.3134 18.3134 0 0 1-4.792 1.948c-1.475.379-2.992.574-4.515.581-1.154.009-2.304-.126-3.425-.404V3.274c.265.061.537.117.814.164.455.077.934.133 1.401.167zm8.734.133-.623.21c-.573.192-1.15.365-1.731.518-1.691.434-3.428.657-5.173.663-.406 0-.78-.011-1.141-.034l-.497-.033v14.017l.427.038c.395.034.803.052 1.214.052a16.573 16.573 0 0 0 4.074-.527c1.096-.275 2.162-.658 3.184-1.144l.266-.128V3.742zM1.684 25.977c-.09-.093-.197-.166-.317-.214s-.247-.071-.376-.066c-.137-.002-.273.024-.4.075-.117.046-.222.116-.311.205s-.156.196-.201.313c-.049.123-.073.254-.072.387v2.335c-.006.165.026.328.092.479.055.12.135.226.233.313.093.079.203.135.321.166.114.032.231.048.349.049a.891.891 0 0 0 .377-.081.972.972 0 0 0 .311-.216c.087-.091.156-.197.204-.313a.951.951 0 0 0 .075-.372v-.261h-.61v.208c.002.071-.01.142-.036.208a.359.359 0 0 1-.089.131.3653.3653 0 0 1-.128.067.4246.4246 0 0 1-.128.022c-.054.006-.11-.002-.16-.024s-.094-.057-.126-.101a.5482.5482 0 0 1-.081-.313v-2.177a.7375.7375 0 0 1 .075-.349c.032-.049.077-.089.129-.114s.112-.034.17-.027c.053-.002.105.009.152.032s.089.057.12.099c.068.09.104.2.101.313v.202h.604v-.238c.001-.14-.024-.278-.075-.408a.9618.9618 0 0 0-.204-.329zM5.31 25.95c-.195-.164-.44-.255-.694-.257-.124 0-.248.023-.364.066a.9612.9612 0 0 0-.559.518c-.061.143-.092.297-.089.452v2.239c-.004.158.026.314.089.459.055.12.136.227.237.313a.939.939 0 0 0 .322.197c.117.043.24.065.364.066s.248-.023.364-.066c.121-.044.233-.111.33-.197a.9483.9483 0 0 0 .23-.313c.063-.145.093-.301.089-.459v-2.239c.003-.155-.027-.31-.089-.452a1.015 1.015 0 0 0-.23-.327zm-.285 3.019c.005.06-.003.12-.024.176s-.054.107-.097.148a.4453.4453 0 0 1-.574 0c-.043-.041-.076-.092-.097-.148s-.029-.116-.024-.176V26.73c-.005-.06.003-.12.024-.176s.054-.107.097-.148a.4453.4453 0 0 1 .574 0c.043.041.076.092.097.148s.029.116.024.176v2.239zM10.072 29.969V25.73h-.587l-.771 2.244h-.011l-.777-2.244h-.581v4.239h.606V27.39h.011l.593 1.823h.302l.598-1.823h.011v2.579h.606zM13.513 26.027a.8406.8406 0 0 0-.343-.232c-.142-.046-.29-.068-.439-.066h-.9v4.239h.604v-1.656h.311c.188.009.376-.031.545-.116a.8824.8824 0 0 0 .332-.324c.07-.113.117-.238.139-.369.024-.16.035-.321.033-.482a2.421 2.421 0 0 0-.059-.606.8977.8977 0 0 0-.223-.39zm-.312 1.292a.5472.5472 0 0 1-.056.221.346.346 0 0 1-.156.149.619.619 0 0 1-.285.053h-.275v-1.441h.311c.094-.005.187.014.272.053.062.036.112.091.142.157.033.074.051.155.053.236v.282c0 .099.006.2 0 .291h-.006zM16.374 25.73h-.495l-.934 4.239h.604l.177-.911h.823l.177.911h.604l-.957-4.239zm-.557 2.751.297-1.537h.011l.296 1.537h-.604zM20.277 28.284h-.011l-.912-2.554h-.581v4.239h.604V27.42h.012l.923 2.549h.568V25.73h-.604v2.554zM23.968 25.73l-.486 1.685h-.012l-.486-1.685h-.64l.83 2.447v1.792h.604v-1.792l.83-2.447h-.64zM0 31.166h.291v.817h.198v-.817h.29v-.167H.001v.167zM2.447 30.998l-.381.984h.21l.081-.224h.392l.084.224h.215l-.391-.984h-.21zm-.031.595.134-.365.134.365h-.268zM4.866 31.62h.227v.127a.3816.3816 0 0 1-.234.083c-.04.002-.079-.005-.116-.021s-.068-.041-.093-.072a.4112.4112 0 0 1-.073-.257c0-.219.095-.329.283-.329.05-.005.099.008.14.037s.07.071.082.12l.195-.038c-.042-.192-.181-.289-.417-.289a.4945.4945 0 0 0-.344.127c-.05.049-.088.108-.112.174s-.034.135-.029.205c-.006.135.039.267.126.369a.4774.4774 0 0 0 .374.144c.154.004.304-.052.417-.157v-.388h-.427v.166zM7.337 30.998h-.199v.984h.69v-.167h-.49v-.817zM9.426 30.998h-.199v.984h.199v-.984zM11.469 31.656l-.403-.657h-.193v.984h.185v-.643l.395.643h.198v-.984h-.182v.657zM13.315 31.549h.49v-.167h-.49v-.216h.528v-.167h-.727v.984h.747v-.167h-.548v-.266zM17.792 31.387h-.388v-.388h-.198v.984h.198v-.43h.388v.43h.198v-.984h-.198v.388zM19.649 31.549h.492v-.167h-.492v-.216h.529v-.167h-.727v.984h.746v-.167h-.548v-.266zM22.168 31.549c.171-.027.258-.117.258-.274.005-.042-.001-.084-.018-.123s-.044-.072-.078-.096a.5532.5532 0 0 0-.288-.058h-.417v.984h.198v-.412h.039c.042-.003.084.005.123.022.029.018.053.043.07.072l.215.313h.237l-.12-.192a.6851.6851 0 0 0-.218-.236zm-.199-.136h-.146v-.247h.156c.068-.005.136.002.201.023.014.013.026.029.033.046s.011.037.01.056a.1283.1283 0 0 1-.052.098.5466.5466 0 0 1-.201.023zM24.067 31.549h.49v-.167h-.49v-.216h.529v-.167h-.729v.984h.747v-.167h-.548v-.266z"/>
    </symbol>
    <symbol id="icon-logo-1" viewBox="0 0 28 32">
      <path d="m4.085 0 4.771 4.517L0 4.512v21.915h23.149v-8.379l4.766 4.512V.001H4.085zm18.854 17.517L9.411 4.71h13.528v12.807zm-4.2 5.704H3.663V8.482h1.066v13.741h14.01v.998zM7.223 29.344l-.557 1.147-.557-1.147h-.467l.813 1.529v.891h.422v-.891l.811-1.529h-.465zm.7 2.42.196-.563h.938l.198.563h.439l-.916-2.42h-.377l-.914 2.42h.437zm.665-1.906.351 1.004h-.701l.351-1.004zm2.217.946a.5493.5493 0 0 0-.091.307c0 .204.072.37.214.497.144.126.336.189.575.189s.445-.065.618-.194l.136.161h.469l-.356-.421c.14-.191.209-.435.209-.733h-.351c0 .163-.034.311-.101.444l-.467-.552.165-.12c.116-.084.2-.168.251-.253a.5318.5318 0 0 0 .076-.279c0-.153-.056-.281-.17-.384-.112-.104-.256-.156-.432-.156-.195 0-.35.055-.465.166-.115.11-.173.259-.173.449 0 .078.018.158.055.241.038.083.104.184.198.303-.18.129-.3.24-.361.334zm1.092.535c-.119.091-.246.136-.382.136-.121 0-.217-.035-.289-.105s-.108-.161-.108-.273c0-.13.067-.245.2-.346l.052-.037.529.623zm-.434-1.072c-.114-.141-.171-.258-.171-.351 0-.081.023-.148.07-.201s.109-.08.188-.08c.073 0 .133.023.181.068.048.044.072.098.072.161 0 .095-.034.173-.103.234l-.052.042-.184.126zm3.94 1.314c.166-.145.262-.347.286-.605h-.419c-.022.173-.075.296-.158.371s-.207.111-.372.111c-.181 0-.318-.069-.412-.206-.093-.137-.14-.337-.14-.598v-.214c.002-.258.052-.454.15-.587.099-.134.239-.201.422-.201.157 0 .277.039.357.116.082.076.133.202.153.376h.419c-.027-.265-.121-.47-.284-.615s-.378-.218-.645-.218c-.198 0-.373.047-.525.141-.151.094-.267.228-.347.402s-.121.375-.121.603v.226c.003.223.045.418.125.587s.193.299.339.391c.147.091.317.136.51.136.276 0 .497-.072.663-.216zm2.472-.339c.082-.18.123-.388.123-.625v-.135c-.001-.236-.043-.443-.126-.62-.083-.178-.201-.315-.354-.409-.152-.095-.326-.143-.524-.143s-.372.048-.525.145c-.152.095-.27.233-.354.414-.083.181-.125.389-.125.625v.136c.001.232.043.436.126.613.084.177.203.314.356.411.154.095.329.143.525.143.198 0 .373-.048.525-.143.153-.096.27-.234.352-.412zm-.451-1.368c.102.143.153.349.153.617v.126c0 .273-.05.48-.151.622-.1.142-.243.213-.429.213-.184 0-.328-.073-.432-.218-.103-.145-.155-.351-.155-.617v-.14c.002-.26.054-.462.156-.603.103-.143.245-.214.427-.214.186 0 .33.072.43.214z"/>
    </symbol>
    <symbol id="icon-instagram" viewBox="0 0 32 32">
      <path d="M31.969 9.408c-.075-1.7-.35-2.869-.744-3.882-.406-1.075-1.032-2.038-1.851-2.838A7.8671 7.8671 0 0 0 26.542.844C25.523.45 24.36.175 22.66.1 20.947.019 20.403 0 16.059 0s-4.888.019-6.595.094c-1.7.075-2.869.35-3.882.744-1.075.406-2.038 1.031-2.838 1.85C1.931 3.488 1.3 4.457.9 5.52.506 6.539.231 7.702.156 9.402c-.081 1.713-.1 2.257-.1 6.601s.019 4.888.094 6.595c.075 1.7.35 2.869.744 3.882.406 1.075 1.038 2.038 1.85 2.838.8.813 1.769 1.444 2.832 1.844 1.019.394 2.182.669 3.882.744 1.706.075 2.25.094 6.595.094s4.888-.019 6.595-.094c1.7-.075 2.869-.35 3.882-.744a8.1843 8.1843 0 0 0 4.682-4.682c.394-1.019.669-2.182.744-3.882.075-1.707.094-2.251.094-6.595s-.006-4.888-.081-6.595zm-2.882 13.065c-.069 1.563-.331 2.407-.55 2.969a5.3097 5.3097 0 0 1-3.038 3.038c-.563.219-1.413.481-2.969.55-1.688.075-2.194.094-6.464.094s-4.782-.019-6.464-.094c-1.563-.069-2.407-.331-2.969-.55-.694-.256-1.325-.663-1.838-1.194-.531-.519-.938-1.144-1.194-1.838-.219-.563-.481-1.413-.55-2.969-.075-1.688-.094-2.194-.094-6.464s.019-4.782.094-6.464c.069-1.563.331-2.407.55-2.969.256-.694.663-1.325 1.2-1.838.519-.531 1.144-.938 1.838-1.194.563-.219 1.413-.481 2.969-.55 1.688-.075 2.194-.094 6.464-.094 4.276 0 4.782.019 6.464.094 1.563.069 2.407.331 2.969.55.694.256 1.325.662 1.838 1.194.531.519.938 1.144 1.194 1.838.219.563.481 1.413.55 2.969.075 1.688.094 2.194.094 6.464s-.019 4.77-.094 6.458z"/>
      <path d="M16.059 7.783c-4.538 0-8.22 3.682-8.22 8.22s3.682 8.22 8.22 8.22c4.539 0 8.22-3.682 8.22-8.22s-3.682-8.22-8.22-8.22zm0 13.552c-2.944 0-5.332-2.388-5.332-5.332s2.388-5.332 5.332-5.332 5.332 2.388 5.332 5.332-2.388 5.332-5.332 5.332zM26.524 7.458c0 1.06-.859 1.919-1.919 1.919s-1.919-.859-1.919-1.919.859-1.919 1.919-1.919 1.919.859 1.919 1.919z"/>
    </symbol>
    <symbol id="icon-linkedin" viewBox="0 0 32 32">
      <path d="M31.992 32v-.001H32V20.263c0-5.741-1.236-10.164-7.948-10.164-3.227 0-5.392 1.771-6.276 3.449h-.093v-2.913h-6.364v21.364h6.627V21.42c0-2.785.528-5.479 3.977-5.479 3.399 0 3.449 3.179 3.449 5.657v10.401h6.62zM.528 10.636h6.635V32H.528V10.636zM3.843 0C1.722 0 0 1.721 0 3.843s1.721 3.879 3.843 3.879c2.121 0 3.843-1.757 3.843-3.879C7.685 1.722 5.963 0 3.843 0z"/>
    </symbol>
    <symbol id="icon-group-4" viewBox="0 0 72 32">
      <path d="M1.067 0h69.867c.589 0 1.067.478 1.067 1.067v29.867c0 .589-.478 1.067-1.067 1.067H1.067C.478 32.001 0 31.523 0 30.934V1.067C0 .478.478 0 1.067 0z"/>
      <path d="M45.318 9.306a.3147.3147 0 0 0-.251-.212l-1.114-.162-.499-1.01c-.105-.213-.453-.213-.558 0l-.499 1.01-1.115.162a.3114.3114 0 0 0-.172.531l.807.786-.19 1.11a.311.311 0 0 0 .123.304c.097.07.223.079.328.024l.997-.524.997.524a.3113.3113 0 0 0 .328-.023c.096-.07.144-.188.123-.304l-.19-1.11.807-.786a.3122.3122 0 0 0 .079-.319zm-1.436.774a.3095.3095 0 0 0-.089.275l.111.65-.583-.307c-.045-.024-.095-.036-.145-.036s-.099.012-.145.036l-.583.307.111-.65a.3086.3086 0 0 0-.089-.275l-.473-.46.653-.095a.3107.3107 0 0 0 .234-.17l.292-.591.292.591a.31.31 0 0 0 .234.17l.653.095-.472.46zM41.911 18.638h-.622v.622h.622v-.622zM41.911 19.882h-.622v.622h.622v-.622zM42.533 19.26h-.622v.622h.622v-.622zM41.289 19.26h-.622v.622h.622v-.622zM39.733 22.06h-.622v.622h.622v-.622zM39.733 23.305h-.622v.622h.622v-.622zM40.356 22.682h-.622v.622h.622v-.622zM39.111 22.682h-.622v.622h.622v-.622zM36 20.816h-.622v.622H36v-.622zM36 22.06h-.622v.622H36v-.622zM36.622 21.438H36v.622h.622v-.622zM35.378 21.438h-.622v.622h.622v-.622zM30.089 10.238h-.622v.622h.622v-.622zM30.089 11.482h-.622v.622h.622v-.622zM30.711 10.86h-.622v.622h.622v-.622zM29.467 10.86h-.622v.622h.622v-.622z"/>
      <path d="M41.084 14.926a1.0358 1.0358 0 0 0-.693-.411c-.281-.04-.558.034-.782.205l-.73.56-1.107.827-.792-.316c1.413-.634 2.4-2.046 2.4-3.687 0-2.23-1.822-4.044-4.061-4.044s-4.061 1.814-4.061 4.044c0 .808.242 1.56.653 2.192l-1.612-.014h-.003c-.005 0-.009.002-.014.003a.2886.2886 0 0 0-.091.018c-.007.003-.015.004-.022.008-.004.002-.007.002-.011.004l-1.886.931h-.001l-1.104.531a.1739.1739 0 0 0-.037.021c-.44.293-.59.869-.349 1.339.129.25.347.434.616.519.104.032.209.048.315.048.169 0 .336-.041.49-.123l.81-.431 1.321-.682.791-.005-3.174 3.159s-.001 0-.001.001l-.781.778c-.184.184-.286.427-.286.687s.102.504.286.688c.19.189.439.283.688.283s.498-.095.689-.283l.767-.764 1.015-.758.525.523-1.027 1.023c-.001 0-.001 0-.001.001l-.781.778c-.185.184-.286.427-.286.687s.102.504.286.688c.189.189.439.283.688.283s.499-.095.689-.283l2.031-2.022s0-.001.001-.001l.589-.583-.002-.002c.004-.004.009-.005.013-.009l3.013-3.301 2.025.288c.015.002.029.003.044.003.038 0 .074-.009.109-.022.01-.004.019-.009.029-.014.011-.006.023-.009.034-.016l1.874-1.244c.007-.005.011-.012.017-.017.007-.006.017-.008.024-.015l.742-.695c.386-.362.439-.954.124-1.378zm-13.175 2.107c-.101.054-.216.065-.326.03s-.197-.108-.249-.209a.4167.4167 0 0 1 .125-.526l.766-.369.185.539.077.226-.579.308zm2.04-1.067-.903.467-.149-.436-.107-.313 1.182-.584-.023.866zm8.808-3.862c0 .536-.128 1.041-.349 1.493l-2.439-1.108a1.0861 1.0861 0 0 0-.46-.81l.854-2.835c1.387.441 2.394 1.735 2.394 3.26zm-6.876 0c0-1.887 1.542-3.422 3.438-3.422.147 0 .292.012.435.03l-.835 2.773c-.011 0-.022-.003-.033-.003-.602 0-1.093.488-1.093 1.089s.49 1.089 1.093 1.089c.405 0 .755-.224.944-.551l2.253 1.024c-.627.844-1.63 1.394-2.763 1.394-1.896 0-3.438-1.535-3.438-3.422zm3.474.467c0 .257-.211.467-.47.467s-.47-.209-.47-.467.211-.467.47-.467.47.209.47.467zm-7.25 8.764a.354.354 0 0 1-.498 0c-.066-.066-.103-.154-.103-.247s.036-.18.103-.246l.561-.559.497.494-.559.557zm1.874 2.178a.3543.3543 0 0 1-.499 0c-.066-.066-.103-.154-.103-.247s.036-.18.103-.246l.562-.559.497.494-.56.557zm2.031-2.023s-.001 0-.001.001l-1.03 1.027-.497-.494L31.511 21s.001 0 .001-.001c.023-.023.038-.051.052-.079.004-.008.012-.015.015-.023.01-.024.011-.05.015-.075.002-.014.008-.028.008-.042 0-.021-.007-.041-.012-.062-.004-.019-.004-.038-.011-.056-.012-.029-.032-.055-.053-.08-.006-.007-.008-.016-.015-.022h-.001c-.001 0 0-.001-.001-.001l-.937-.933c-.01-.01-.023-.014-.034-.022-.017-.013-.032-.025-.051-.034s-.036-.014-.055-.019a.3038.3038 0 0 0-.06-.012c-.019-.001-.037.001-.055.003-.021.002-.041.005-.061.012s-.037.016-.055.026c-.012.007-.025.009-.035.017l-1.035.772-.525-.523 1.399-1.392 2.543 2.502-.541.536zm3.978-4.093c-.009-.001-.017.002-.026.002a.3018.3018 0 0 0-.067.004.421.421 0 0 0-.051.012c-.02.007-.038.016-.056.027s-.033.022-.049.036c-.007.006-.017.01-.023.017l-2.741 3.002-2.525-2.483 1.653-1.644a.3111.3111 0 0 0 .001-.44.3133.3133 0 0 0-.222-.091l-1.294.008.016-.938 1.811.016c.738.755 1.767 1.225 2.906 1.225.255 0 .504-.026.746-.072.023.019.046.038.075.049l1.406.56.089.442.104.516-1.752-.249zm2.357.103-.182-.909.844-.63.552.733-1.214.806zm2.19-1.651-.489.458-.543-.721.485-.372c.091-.07.205-.098.317-.083.113.016.212.075.28.166.126.17.105.408-.05.553z"/>
      <path d="m34.601 17.484-1.25-1.244a.3108.3108 0 0 0-.439 0l-1.25 1.244c-.058.059-.091.138-.091.221s.033.162.091.221l1.25 1.244c.061.06.14.091.219.091s.159-.03.219-.091l1.25-1.244c.058-.058.092-.138.092-.221s-.033-.162-.092-.221zm-1.469 1.026-.809-.805.809-.805.809.805-.809.805zM36.679 9.625l-.15.604c.041.01 1.014.264 1.014 1.254h.622c0-1.177-.972-1.73-1.486-1.858zM38.165 12.104h-.622v.622h.622v-.622z"/>
    </symbol>
    <symbol id="icon-group-3" viewBox="0 0 72 32">
      <path d="M1.067 0h69.867c.589 0 1.067.478 1.067 1.067v29.867c0 .589-.478 1.067-1.067 1.067H1.067C.478 32.001 0 31.523 0 30.934V1.067C0 .478.478 0 1.067 0z"/>
      <path d="M35.373 15.396h.622v2.799h-.622v-2.799zM37.861 16.64h.622v1.555h-.622V16.64zM32.886 17.573h.622v.622h-.622v-.622zM31.02 17.262h.622v.933h-.622v-.933z"/>
      <path d="M27.599 23.17h14.926c.515 0 .933-.418.933-.933v-1.244c0-.515-.418-.933-.933-.933h-.311v-7.754l1.766-1.673c.41.202.906.079 1.174-.291s.231-.88-.089-1.207-.829-.375-1.205-.115c-.376.26-.51.754-.317 1.168l-1.331 1.262v-.717c0-.515-.418-.933-.933-.933H28.841c-.515 0-.933.418-.933.933v9.328h-.311c-.515 0-.933.418-.933.933v1.244c0 .515.418.933.933.933zM44.391 9.488c.172 0 .311.139.311.311s-.139.311-.311.311-.311-.139-.311-.311.139-.311.311-.311zm-15.859 1.244c0-.172.139-.311.311-.311h12.438c.172 0 .311.139.311.311v1.306l-.622.591v-1.275c0-.172-.139-.311-.311-.311H29.465c-.172 0-.311.139-.311.311v7.774c0 .172.139.311.311.311h11.194c.171 0 .311-.139.311-.311v-5.643l.622-.589v7.165h-13.06v-9.328zm2.799 4.042c-.421-.001-.79.279-.902.685s.061.836.423 1.05c.362.215.822.161 1.125-.132l1.081.542c.126.063.278.033.371-.072l2.298-2.585 2.259 1.692c.121.091.29.081.4-.023l1.963-1.859v4.743H29.777v-7.152h10.572v1.552l-2.2 2.083-2.278-1.707a.311.311 0 0 0-.419.042l-2.329 2.621-.871-.435c.006-.037.01-.075.012-.113 0-.515-.418-.933-.933-.933zm.311.933c0 .172-.139.311-.311.311s-.311-.139-.311-.311.139-.311.311-.311.311.139.311.311zm1.865 4.975h3.11v.311c0 .172-.139.311-.311.311h-2.488a.3107.3107 0 0 1-.311-.311v-.311zm-6.218.311c0-.172.139-.311.311-.311h5.286v.311c0 .515.418.933.933.933h2.488c.515 0 .933-.418.933-.933v-.311h5.286c.172 0 .311.139.311.311v1.244c0 .172-.139.311-.311.311H27.6a.3107.3107 0 0 1-.311-.311v-1.244z"/>
    </symbol>
    <symbol id="icon-group-2" viewBox="0 0 72 32">
      <path d="M1.067 0h69.867c.589 0 1.067.478 1.067 1.067v29.867c0 .589-.478 1.067-1.067 1.067H1.067C.478 32.001 0 31.523 0 30.934V1.067C0 .478.478 0 1.067 0z"/>
      <path d="M44.923 15.592c-.001-4.931-3.999-8.927-8.93-8.926s-8.927 3.999-8.926 8.93c.001 3.884 2.512 7.321 6.212 8.503a.365.365 0 0 0 .109.017c.07 0 .139-.019.2-.055a.3705.3705 0 0 0 .165-.208l2.255-7.146c.616-.003 1.113-.505 1.11-1.122s-.505-1.113-1.122-1.11c-.166.001-.329.039-.478.112l-2.978-2.979a.3715.3715 0 0 0-.526.009.3726.3726 0 0 0 0 .517l2.977 2.98c-.228.466-.098 1.029.313 1.347l-2.148 6.809c-4.245-1.564-6.419-6.273-4.855-10.518s6.273-6.419 10.519-4.855c4.245 1.564 6.419 6.273 4.855 10.518a8.1904 8.1904 0 0 1-4.353 4.651l-.232-1.093c-.042-.201-.24-.329-.441-.287a.3853.3853 0 0 0-.171.086L36.24 23.77a.3719.3719 0 0 0-.031.525c.045.05.102.087.165.107l2.858.912c.195.063.405-.045.468-.24.02-.062.023-.128.01-.191l-.228-1.073c3.304-1.393 5.449-4.633 5.442-8.219zm-8.928-.372c.205 0 .372.167.372.372s-.167.372-.372.372c-.206 0-.372-.166-.372-.372s.166-.372.372-.372zm1.226 8.671 1.274-1.136.352 1.657-1.626-.52z"/>
      <path d="M35.623 8.525v.744c0 .206.166.372.372.372s.372-.166.372-.372v-.744c0-.205-.167-.372-.372-.372s-.372.167-.372.372zM28.928 15.22a.372.372 0 1 0 0 .744h.744a.372.372 0 1 0 0-.744h-.744zM43.063 15.964a.372.372 0 1 0 0-.744h-.744c-.205 0-.372.167-.372.372s.167.372.372.372h.744z"/>
    </symbol>
    <symbol id="icon-group-1" viewBox="0 0 72 32">
      <path d="M1.067 0h69.867c.589 0 1.067.478 1.067 1.067v29.867c0 .589-.478 1.067-1.067 1.067H1.067C.478 32.001 0 31.523 0 30.934V1.067C0 .478.478 0 1.067 0z"/>
      <path d="m44.618 19.557-4.925-4.961.547-2.692c.141.055.291.084.442.085h.004c.695.008 1.266-.549 1.274-1.244s-.549-1.266-1.245-1.274c-.695-.008-1.266.549-1.274 1.244-.002.149.023.297.073.437l-2.893.353-4.719-4.744a.3088.3088 0 0 0-.22-.093c-.082 0-.16.033-.218.091l-.882.877a.3102.3102 0 0 0 0 .44l.475.482c-1.839 3.382-1.242 7.57 1.47 10.303a.302.302 0 0 0 .085.057c-.02.105-.03.212-.03.319v3.609h-3.733c-.859.001-1.555.697-1.556 1.556v.622c0 .172.139.311.311.311h14.311c.172 0 .311-.139.311-.311v-.622c-.001-.859-.697-1.555-1.555-1.556h-3.733v-1.599a8.785 8.785 0 0 0 1.778.187 8.673 8.673 0 0 0 4.107-1.04l.477.48c.058.059.137.093.22.093.082 0 .16-.033.218-.091l.882-.877a.3102.3102 0 0 0 0-.44zm-4.371-9.254c.243-.242.638-.241.88.002s.241.638-.002.88a.6222.6222 0 0 1-.439.181h-.002c-.343-.002-.621-.282-.619-.625a.6243.6243 0 0 1 .183-.438h-.001zm-.733 2.044-.349 1.718-.686-.69 1.035-1.029zm-.353-.526-1.12 1.113-.866-.871 1.986-.242zm1.508 11.646c.515 0 .933.418.933.933v.311H27.913V24.4c0-.515.418-.933.933-.933h11.822zm-4.355-1.245v.622h-3.111v-.622h3.111zm-3.112-.622v-2.364c0-.755.698-1.369 1.555-1.369s1.556.614 1.556 1.369V21.6h-3.111zm3.734-.989v-1.375c0-1.098-.977-1.991-2.178-1.991a2.2169 2.2169 0 0 0-1.914 1.042c-2.367-2.493-2.9-6.21-1.329-9.268l10.851 10.913a8.0683 8.0683 0 0 1-5.43.679zm6.585-.399L31.238 7.857l.44-.439 4.629 4.655c.002 0 .003.004.006.006l7.65 7.695-.441.439z"/>
      <path d="M34.761 18.489h-.003c-.515-.001-.934.416-.935.932s.417.934.932.935h.003c.515.001.934-.416.935-.932s-.417-.934-.932-.935zm.217 1.154a.3134.3134 0 0 1-.221.091.3107.3107 0 0 1-.309-.313c0-.082.033-.161.092-.219s.136-.09.218-.091c.172.001.31.141.31.313a.3114.3114 0 0 1-.092.219h.003z"/>
    </symbol>
    <symbol id="icon-envelope-hover" viewBox="0 0 43 32">
      <path d="M38.667 0H4C1.794 0 0 1.794 0 4v24c0 2.206 1.794 4 4 4h34.667c2.206 0 4-1.794 4-4V4c0-2.206-1.794-4-4-4zm0 2.667c.181 0 .353.038.511.103L21.334 18.236 3.49 2.77c.158-.066.33-.103.511-.103h34.667zm0 26.666H4c-.736 0-1.333-.598-1.333-1.333V5.587L20.46 21.008a1.335 1.335 0 0 0 1.748 0L40.001 5.587V28c0 .736-.598 1.333-1.333 1.333z"/>
    </symbol>
    <symbol id="icon-smartphone" viewBox="0 0 20 32">
      <path d="M17 0H3C1.346 0 0 1.346 0 3v26c0 1.654 1.346 3 3 3h14c1.654 0 3-1.346 3-3V3c0-1.654-1.346-3-3-3zM3 2h14c.552 0 1 .448 1 1v21H2V3c0-.552.448-1 1-1zm14 28H3c-.552 0-1-.448-1-1v-3h16v3c0 .552-.448 1-1 1z"/>
      <path d="M4.707 27.478c.391.365.391.956 0 1.321s-1.024.365-1.414 0c-.391-.365-.391-.956 0-1.321s1.024-.365 1.414 0z"/>
    </symbol>
  </defs>
</svg>